PathFileType	4	(X/Y/Z)	Walk2.trc
DataRate	CameraRate	NumFrames	NumMarkers	Units	OrigDataRate	OrigDataStartFrame	OrigNumFrames
200.000000	200.000000	4	61	mm	200.000000	677	1012
Frame#	Times		RCAR		LToe		LTB4		LTB1		RWRR		LMT1		RACR1		LFA1		LUA1		RFA1		LElbow		RFHD		LCAR		LASI		LWRU		LWRR		RLFC		STRN		LACR1		RTH3		RWRU		RToe		C7		RPSI		RMT1		RMT5		LPSI		RMFC		LFHD		RTB3		LTH3		LMFC		RTB2		RTB1		RCAL		LTH4		CLAV		RTB4		RTH2		RMMAL		LMT5		LTH1		RASI		LTH2		RLMAL		LBHD		LTB2		RBHD		LLFC		RUA1		RElbow		LTB3		RTH4		LMMAL		RTH1		LCAL		RBack		T10		LElbowM		LLMAL		RElbowM
			X1	Y1	Z1	X2	Y2	Z2	X3	Y3	Z3	X4	Y4	Z4	X5	Y5	Z5	X6	Y6	Z6	X7	Y7	Z7	X8	Y8	Z8	X9	Y9	Z9	X10	Y10	Z10	X11	Y11	Z11	X12	Y12	Z12	X13	Y13	Z13	X14	Y14	Z14	X15	Y15	Z15	X16	Y16	Z16	X17	Y17	Z17	X18	Y18	Z18	X19	Y19	Z19	X20	Y20	Z20	X21	Y21	Z21	X22	Y22	Z22	X23	Y23	Z23	X24	Y24	Z24	X25	Y25	Z25	X26	Y26	Z26	X27	Y27	Z27	X28	Y28	Z28	X29	Y29	Z29	X30	Y30	Z30	X31	Y31	Z31	X32	Y32	Z32	X33	Y33	Z33	X34	Y34	Z34	X35	Y35	Z35	X36	Y36	Z36	X37	Y37	Z37	X38	Y38	Z38	X39	Y39	Z39	X40	Y40	Z40	X41	Y41	Z41	X42	Y42	Z42	X43	Y43	Z43	X44	Y44	Z44	X45	Y45	Z45	X46	Y46	Z46	X47	Y47	Z47	X48	Y48	Z48	X49	Y49	Z49	X50	Y50	Z50	X51	Y51	Z51	X52	Y52	Z52	X53	Y53	Z53	X54	Y54	Z54	X55	Y55	Z55	X56	Y56	Z56	X57	Y57	Z57	X58	Y58	Z58	X59	Y59	Z59	X60	Y60	Z60	X61	Y61	Z61

677	3.385	-264.75	865.98	356	-94.022	32.2	-25.051	-269.74	280.26	-26.717	-262.58	365.17	-30.914	-265.64	910.77	295.85	-151.04	45.884	-13.603	-381.12	1504.7	193.05	-369.29	1046.9	-306.91	-416.68	1345.7	-258.71	-327.88	1043.5	326.73	-455.41	1176.1	-301.28	-250.4	1703.6	87.189	-321.47	884.42	-314.31	-312.69	1036.8	-147.2	-394.85	916.24	-312.75	-318.36	925.08	-259.62	-433.37	508.48	219.95	-255.46	1304.3	-0.45983	-400.77	1530.8	-179	-437.17	629.92	215.5	-328.32	899.01	356.87	-687.24	50.414	131.13	-496.04	1557.3	19.307	-551.27	1065.2	45.422	-703.89	98.979	114.42	-759.37	112.1	194.51	-544.77	1075.9	-64.194	-424.83	489.01	71.277	-244.11	1712.6	-17.265	-642.32	280.34	121.71	-309.34	651.69	-169.26	-303.66	509.34	-0.97944	-573.78	323.72	191.26	-496.55	372.47	136.23	-831.62	277.6	115.24	-330.21	733.61	-190.28	-326.96	1474.5	-6.778	-570.39	325.53	129.17	-386.4	721.47	221.17	-728.45	236.75	75.034	-188.82	28.677	-107.39	-352.29	816.15	-208.05	-340.76	1038.7	165.64	-275.64	752.19	-178.8	-776.15	249.22	163.91	-408.85	1699	-48.272	-239.23	275.25	-82.326	-421.15	1690.6	93.154	-299.68	507.3	-141.71	-389.29	1325.7	268.2	-423.65	1166.2	317.32	-272.92	194.61	-23.186	-446.87	713.35	218.29	-295.94	94.78	15.37	-454.51	801.08	219.56	-374.88	44.708	-51.923	-547.65	1436.1	137.89	-531.2	1199.8	-3.2263	-487.39	1151.1	-215.65	-306.54	67.875	-86.484	-454.21	1136.1	227.86
678	3.39	-261.64	866.42	355.66	-94.043	32.17	-25.131	-269.07	280.18	-26.93	-261.63	365.07	-31.247	-262.22	911.28	295.55	-151.04	45.877	-13.662	-376.02	1505.6	192.74	-362.83	1048.5	-307.76	-410.93	1346.8	-259.36	-324.15	1044.3	326.36	-449.54	1177.3	-302.44	-244.97	1704.4	86.971	-314.17	886.31	-315.03	-307.79	1037.5	-147.42	-387.78	917.6	-313.5	-311.31	927.02	-260.4	-422.11	509.6	219.77	-250.32	1305	-0.59783	-395.01	1531.7	-179.34	-427.53	630.63	215.22	-325.06	899.73	356.51	-675.33	52.455	132.4	-490.57	1558.4	18.762	-546.32	1066.2	45.03	-692.09	100.98	115.25	-747.5	114.51	195.35	-539.87	1077	-64.58	-413.7	490.11	71.123	-238.59	1713.5	-17.481	-631.1	281.88	121.56	-306.6	652.04	-169.67	-302.22	509.38	-1.4189	-562.5	325.27	191.05	-485.12	373.83	136	-820.63	279.04	114.95	-326.83	734.11	-190.67	-321.59	1475.2	-7.0485	-559.07	326.97	128.95	-377.97	722.86	220.99	-717.2	238.31	74.987	-188.86	28.639	-107.44	-348.26	816.85	-208.4	-335.99	1039.4	165.57	-272.11	752.28	-179.1	-764.93	251.1	163.78	-403.31	1699.9	-48.621	-238.57	275.04	-82.557	-415.73	1691.4	92.799	-298.04	507.34	-142.12	-384.77	1326.6	267.8	-419.59	1167.2	316.79	-272.55	194.55	-23.355	-438.3	713.95	218.02	-295.89	94.86	15.297	-447.04	801.58	219.19	-374.92	44.692	-51.922	-542.56	1437.2	137.1	-526.14	1200.9	-3.8334	-481.77	1152	-216.95	-306.54	67.84	-86.541	-450.08	1137.1	227.28
679	3.395	-258.54	866.9	355.36	-94.065	32.151	-25.205	-268.38	280.1	-27.136	-260.67	364.97	-31.576	-258.82	911.82	295.27	-151.05	45.869	-13.722	-370.95	1506.5	192.44	-356.35	1050	-308.59	-405.15	1347.9	-259.96	-320.48	1045	326.01	-443.64	1178.5	-303.56	-239.56	1705.2	86.761	-306.88	888.18	-315.77	-302.94	1038.3	-147.71	-380.71	918.95	-314.26	-304.27	928.93	-261.18	-410.93	510.8	219.55	-245.21	1305.6	-0.70036	-389.27	1532.6	-179.66	-417.93	631.41	214.92	-321.83	900.45	356.16	-662.89	54.385	133.51	-485.14	1559.3	18.24	-541.39	1067.1	44.667	-679.88	102.8	115.96	-735.2	116.59	196.11	-534.97	1078	-64.933	-402.63	491.27	70.955	-233.1	1714.3	-17.69	-619.71	283.24	121.43	-303.91	652.37	-170.07	-300.78	509.43	-1.8294	-551.12	326.76	190.85	-473.62	375.18	135.78	-809.51	280.06	114.69	-323.49	734.58	-191.04	-316.26	1475.9	-7.2905	-547.64	328.32	128.75	-369.6	724.31	220.81	-705.76	239.62	74.91	-188.9	28.602	-107.49	-344.25	817.51	-208.73	-331.22	1040.2	165.51	-268.61	752.33	-179.41	-753.51	252.64	163.64	-397.8	1700.8	-48.956	-237.93	274.83	-82.802	-410.34	1692.2	92.463	-296.44	507.38	-142.51	-380.32	1327.5	267.43	-415.61	1168.1	316.28	-272.17	194.49	-23.52	-429.76	714.61	217.73	-295.82	94.94	15.231	-439.61	802.12	218.82	-374.95	44.675	-51.914	-537.49	1438.3	136.36	-521.1	1201.9	-4.4304	-476.12	1153	-218.21	-306.55	67.809	-86.59	-445.99	1138.1	226.72
680	3.4	-255.43	867.42	355.08	-94.087	32.139	-25.274	-267.69	280.02	-27.335	-259.71	364.87	-31.896	-255.44	912.36	295.01	-151.05	45.861	-13.782	-365.91	1507.4	192.16	-349.88	1051.5	-309.39	-399.36	1348.9	-260.52	-316.85	1045.7	325.7	-437.72	1179.6	-304.63	-234.15	1706	86.559	-299.61	890.05	-316.51	-298.12	1038.9	-148.07	-373.66	920.3	-315.02	-297.25	930.8	-261.94	-399.82	512.07	219.32	-240.13	1306.2	-0.77327	-383.55	1533.5	-179.95	-408.37	632.26	214.61	-318.61	901.16	355.82	-649.94	56.186	134.47	-479.73	1560.3	17.739	-536.48	1068.1	44.33	-667.26	104.43	116.57	-722.49	118.34	196.77	-530.09	1079	-65.257	-391.63	492.49	70.773	-227.61	1715	-17.891	-608.16	284.43	121.31	-301.28	652.65	-170.43	-299.34	509.49	-2.2074	-539.65	328.16	190.68	-462.07	376.5	135.57	-798.24	280.66	114.46	-320.21	735.01	-191.39	-310.96	1476.6	-7.5061	-536.09	329.57	128.56	-361.28	725.82	220.64	-694.14	240.69	74.799	-188.95	28.566	-107.54	-340.28	818.15	-209.04	-326.44	1041	165.44	-265.14	752.33	-179.72	-741.89	253.82	163.48	-392.3	1701.6	-49.276	-237.31	274.62	-83.058	-404.96	1693	92.147	-294.89	507.41	-142.87	-375.93	1328.3	267.09	-411.71	1169	315.78	-271.78	194.43	-23.682	-421.26	715.33	217.43	-295.75	95.017	15.175	-432.22	802.7	218.44	-374.98	44.659	-51.897	-532.44	1439.3	135.66	-516.1	1202.9	-5.0185	-470.44	1153.9	-219.43	-306.56	67.782	-86.631	-441.93	1139.1	226.17
